<?xml version="1.0" encoding="utf-8"?>
<!-- Generator: Adobe Illustrator 13.0.0, SVG Export Plug-In . SVG Version: 6.00 Build 14948)  -->
<!DOCTYPE svg PUBLIC "-//W3C//DTD SVG 1.1 Tiny//EN" "http://www.w3.org/Graphics/SVG/1.1/DTD/svg11-tiny.dtd">
<svg version="1.1" baseProfile="tiny" id="Ebene_1" xmlns="http://www.w3.org/2000/svg" xmlns:xlink="http://www.w3.org/1999/xlink"
	 x="0px" y="0px" width="509.82px" height="238.835px" viewBox="0 0 509.82 238.835" xml:space="preserve">
<path fill="#FFFFFF" d="M509.82,214.63c0,13.367-10.134,24.205-22.627,24.205H22.625C10.129,238.835,0,227.997,0,214.63V24.207
	C0,10.837,10.129,0,22.625,0h464.568c12.493,0,22.627,10.837,22.627,24.207V214.63z"/>
<path fill="#E20020" d="M500.766,153.31c0,9.804-7.423,17.746-16.583,17.746H25.642c-9.163,0-16.592-7.942-16.592-17.746V27.435
	c0-9.806,7.43-17.75,16.592-17.75h458.541c9.16,0,16.583,7.945,16.583,17.75V153.31z"/>
<path fill="#E20020" d="M500.771,213.075c0,8.916-6.752,16.14-15.086,16.14H24.133c-8.332,0-15.084-7.224-15.084-16.14v-16.136
	c0-8.911,6.752-16.134,15.084-16.134h461.552c8.334,0,15.086,7.223,15.086,16.134V213.075z"/>
<polygon fill="#FFFFFF" points="31.476,214.831 28.145,214.831 28.145,198.332 23.372,203.434 21.366,201.105 27.24,195.188 
	31.476,195.188 "/>
<path fill="#FFFFFF" d="M46.16,207.709v-5.371c0-4.006-0.831-4.218-4.257-4.218c-3.453,0-4.26,0.212-4.26,4.218v5.371
	c0,4.032,0.807,4.191,4.26,4.191C45.33,211.9,46.16,211.741,46.16,207.709 M49.489,203.253v3.567c0,7.017-2.08,8.17-7.585,8.17
	c-5.509,0-7.588-1.153-7.588-8.17v-3.62c0-6.572,1.32-8.171,7.588-8.171C47.409,195.029,49.489,196.236,49.489,203.253"/>
<path fill="#FFFFFF" d="M63.414,207.709v-5.371c0-4.006-0.831-4.218-4.26-4.218c-3.45,0-4.254,0.212-4.254,4.218v5.371
	c0,4.032,0.804,4.191,4.254,4.191C62.583,211.9,63.414,211.741,63.414,207.709 M66.743,203.253v3.567c0,7.017-2.08,8.17-7.588,8.17
	c-5.503,0-7.585-1.153-7.585-8.17v-3.62c0-6.572,1.323-8.171,7.585-8.171C64.663,195.029,66.743,196.236,66.743,203.253"/>
<path fill="#FFFFFF" d="M90.243,208.698c0-1.699-0.344-1.699-1.984-1.699c-1.519,0-1.81,0-1.81,1.699v2.439
	c0,1.831,0.291,1.858,1.81,1.858c1.519,0,1.984-0.027,1.984-1.858V208.698z M92.323,211.424c-0.048,3.144-1.196,3.566-4.038,3.566
	c-2.862,0-3.842-0.397-3.916-3.54v-2.885c0.074-3.138,1.054-3.556,3.89-3.556c2.868,0,4.016,0.392,4.064,3.535V211.424z
	 M77.199,214.831h-2.281l11.605-19.643h2.323L77.199,214.831z M77.125,198.724c0-1.704-0.344-1.704-1.984-1.704
	c-1.519,0-1.81,0-1.81,1.704v2.434c0,1.836,0.291,1.862,1.81,1.862c1.519,0,1.984-0.026,1.984-1.862V198.724z M79.205,201.443
	c-0.047,3.148-1.201,3.566-4.043,3.566c-2.862,0-3.842-0.396-3.916-3.534v-2.879c0.074-3.144,1.054-3.567,3.895-3.567
	c2.863,0,4.017,0.393,4.064,3.536V201.443z"/>
<polygon fill="#FFFFFF" points="109.896,214.831 105.245,214.831 101.356,201.083 104.515,201.083 107.521,212.577 107.595,212.577 
	110.41,201.083 113.643,201.083 "/>
<path fill="#FFFFFF" d="M117.655,207.995c0,3.661,0.222,4.477,2.963,4.477c2.741,0,2.963-0.815,2.963-4.477
	c0-3.72-0.223-4.557-2.963-4.557C117.876,203.438,117.655,204.275,117.655,207.995 M126.667,207.968
	c0,5.318-0.688,7.022-6.048,7.022c-5.361,0-6.043-1.704-6.043-7.022c0-5.344,0.683-7.043,6.043-7.043
	C125.979,200.925,126.667,202.624,126.667,207.968"/>
<path fill="#FFFFFF" d="M132.345,201.083v2.064h0.095c0.688-2.017,2.228-2.223,4.038-2.223c3.376,0,4.408,1.492,4.408,4.842v9.064
	H137.8v-8.721c0-1.989-0.413-2.677-2.397-2.677c-2.693,0-3.058,1.364-3.058,3.831v7.566h-3.085v-13.748H132.345z"/>
<path fill="#FFFFFF" d="M155.596,203.147h0.096c0.688-2.017,2.228-2.223,4.037-2.223c3.381,0,4.408,1.492,4.408,4.842v9.064h-3.08
	v-8.721c0-1.989-0.418-2.672-2.402-2.672c-2.694,0-3.059,1.359-3.059,3.826v7.566h-3.085v-19.643h3.085V203.147z"/>
<path fill="#FFFFFF" d="M170.059,214.831h-3.08v-13.748h3.08V214.831z M170.059,197.993h-3.08v-2.805h3.08V197.993z"/>
<path fill="#FFFFFF" d="M181.272,206.477c0-2.826-0.392-3.038-2.911-3.038c-2.672,0-2.842,0.604-2.842,3.038H181.272z
	 M184.357,210.456c0,4.323-2.324,4.534-5.996,4.534c-4.921,0-5.927-1.683-5.927-6.995c0-4.922,0.736-7.07,5.927-7.07
	c5.287,0,5.996,1.651,5.996,7.641h-8.838c0,2.964,0.075,3.906,2.842,3.906c1.709,0,2.911,0.026,2.911-2.016H184.357z"/>
<path fill="#FFFFFF" d="M189.665,201.083l-0.069,1.805h0.122c0.609-1.519,1.932-1.963,3.424-1.963c2.72,0,3.376,1.725,3.376,4.318
	v1.101h-2.884v-0.709c0-1.387-0.122-2.201-1.566-2.201c-1.836,0-2.375,1.132-2.328,2.91v8.487h-3.08v-13.748H189.665z"/>
<rect x="196.375" y="211.243" fill="#FFFFFF" width="3.085" height="3.588"/>
<polygon fill="#FFFFFF" points="223.474,214.831 220.145,214.831 220.145,198.332 215.372,203.434 213.361,201.105 219.235,195.188 
	223.474,195.188 "/>
<path fill="#FFFFFF" d="M238.158,207.709v-5.371c0-4.006-0.831-4.218-4.26-4.218c-3.45,0-4.26,0.212-4.26,4.218v5.371
	c0,4.032,0.81,4.191,4.26,4.191C237.327,211.9,238.158,211.741,238.158,207.709 M241.487,203.253v3.567
	c0,7.017-2.08,8.17-7.588,8.17c-5.503,0-7.588-1.153-7.588-8.17v-3.62c0-6.572,1.323-8.171,7.588-8.171
	C239.407,195.029,241.487,196.236,241.487,203.253"/>
<path fill="#FFFFFF" d="M255.414,207.709v-5.371c0-4.006-0.83-4.218-4.259-4.218c-3.45,0-4.26,0.212-4.26,4.218v5.371
	c0,4.032,0.81,4.191,4.26,4.191C254.584,211.9,255.414,211.741,255.414,207.709 M258.743,203.253v3.567
	c0,7.017-2.079,8.17-7.588,8.17c-5.509,0-7.588-1.153-7.588-8.17v-3.62c0-6.572,1.323-8.171,7.588-8.171
	C256.664,195.029,258.743,196.236,258.743,203.253"/>
<path fill="#FFFFFF" d="M282.244,208.698c0-1.699-0.345-1.699-1.984-1.699c-1.514,0-1.811,0-1.811,1.699v2.439
	c0,1.831,0.297,1.858,1.811,1.858c1.519,0,1.984-0.027,1.984-1.858V208.698z M284.324,211.424c-0.049,3.144-1.197,3.566-4.039,3.566
	c-2.861,0-3.847-0.397-3.915-3.54v-2.885c0.068-3.138,1.054-3.556,3.89-3.556c2.867,0,4.016,0.392,4.064,3.535V211.424z
	 M269.194,214.831h-2.275l11.605-19.643h2.322L269.194,214.831z M269.126,198.724c0-1.704-0.351-1.704-1.984-1.704
	c-1.52,0-1.815,0-1.815,1.704v2.434c0,1.836,0.296,1.862,1.815,1.862c1.519,0,1.984-0.026,1.984-1.862V198.724z M271.205,201.443
	c-0.047,3.148-1.201,3.566-4.038,3.566c-2.862,0-3.847-0.396-3.921-3.534v-2.879c0.074-3.144,1.059-3.567,3.896-3.567
	c2.862,0,4.017,0.393,4.063,3.536V201.443z"/>
<path fill="#FFFFFF" d="M297.563,207.55c0,3.118-0.072,4.922,2.742,4.922c3.159,0,3.037-1.651,3.037-4.922
	c0-2.931-0.37-4.116-3.037-4.116C298.177,203.434,297.563,204.089,297.563,207.55 M303.511,212.763h-0.094
	c-0.784,1.805-2.208,2.228-4.018,2.228c-4.772,0-4.921-3.228-4.921-7.44c0-4.032,0.514-6.625,4.921-6.625
	c1.566,0,3.207,0.313,3.868,1.99h0.122v-7.727h3.085v19.643h-3.085L303.511,212.763z"/>
<path fill="#FFFFFF" d="M312.422,214.831h-3.084v-13.748h3.084V214.831z M312.422,197.993h-3.084v-2.805h3.084V197.993z"/>
<path fill="#FFFFFF" d="M323.636,206.477c0-2.826-0.396-3.038-2.916-3.038c-2.667,0-2.837,0.604-2.837,3.038H323.636z
	 M326.721,210.456c0,4.323-2.328,4.534-6.001,4.534c-4.921,0-5.921-1.683-5.921-6.995c0-4.922,0.735-7.07,5.921-7.07
	c5.286,0,6.001,1.651,6.001,7.641h-8.838c0,2.964,0.075,3.906,2.837,3.906c1.715,0,2.916,0.026,2.916-2.016H326.721z"/>
<path fill="#FFFFFF" d="M340.84,207.55c0,3.271-0.075,4.922,3.085,4.922c2.815,0,2.74-1.804,2.74-4.922
	c0-3.461-0.613-4.116-2.74-4.116C341.258,203.434,340.84,204.619,340.84,207.55 M337.755,195.188h3.085v7.727h0.121
	c0.662-1.678,2.302-1.99,3.868-1.99c4.408,0,4.922,2.593,4.922,6.625c0,4.213-0.148,7.436-4.922,7.436
	c-1.81,0-3.228-0.418-4.011-2.223h-0.101l0.122,2.068h-3.085V195.188z"/>
<path fill="#FFFFFF" d="M360.742,206.477c0-2.826-0.393-3.038-2.916-3.038c-2.668,0-2.837,0.604-2.837,3.038H360.742z
	 M363.827,210.456c0,4.323-2.328,4.534-6.001,4.534c-4.921,0-5.922-1.683-5.922-6.995c0-4.922,0.735-7.07,5.922-7.07
	c5.286,0,6.001,1.651,6.001,7.641h-8.838c0,2.964,0.075,3.906,2.837,3.906c1.714,0,2.916,0.026,2.916-2.016H363.827z"/>
<path fill="#FFFFFF" d="M374.156,204.83c0-1.65-0.81-1.65-2.45-1.65c-1.64,0-2.769,0-2.769,1.799c0,1.365,0.345,1.418,3.038,1.55
	c3.033,0.154,5.726-0.079,5.726,4.377c0,3.714-2.74,4.085-5.995,4.085c-3.503,0-5.847,0-5.847-4.482h3.078
	c0.049,1.99,0.493,2.229,2.769,2.229c1.836,0,2.91,0.053,2.91-1.831c0-1.206-0.068-1.81-3.181-1.863
	c-4.725-0.079-5.576-0.762-5.576-4.265c0-3.778,2.54-3.853,5.847-3.853c2.519,0,5.529,0.053,5.529,3.905H374.156z"/>
<path fill="#FFFFFF" d="M378.411,201.083h1.618v-3.121h3.081v3.121h4.92v2.509h-4.92v7.048c0.026,1.256,0.026,1.832,1.322,1.832
	c1.735,0,1.54-1.466,1.54-2.905h2.721c0.047,4.164-0.932,5.419-4.261,5.419c-3.376,0-4.403-0.837-4.403-4.317v-7.076h-1.618V201.083
	z"/>
<path fill="#FFFFFF" d="M398.731,206.477c0-2.826-0.397-3.038-2.916-3.038c-2.667,0-2.842,0.604-2.842,3.038H398.731z
	 M401.811,210.456c0,4.323-2.322,4.534-5.995,4.534c-4.921,0-5.922-1.683-5.922-6.995c0-4.922,0.731-7.07,5.922-7.07
	c5.286,0,5.995,1.651,5.995,7.641h-8.837c0,2.964,0.074,3.906,2.842,3.906c1.715,0,2.916,0.026,2.916-2.016H401.811z"/>
<polygon fill="#FFFFFF" points="425.333,214.831 422.179,214.831 416.347,198.358 416.279,198.358 416.569,214.831 413.045,214.831 
	413.045,195.188 418.702,195.188 423.697,209.772 423.793,209.772 428.688,195.188 434.461,195.188 434.461,214.831 
	430.942,214.831 431.232,198.278 431.111,198.278 "/>
<path fill="#FFFFFF" d="M446.065,214.831v-2.127h-0.101c-0.709,1.837-2.296,2.281-4.058,2.281c-2.573,0-4.287-0.942-4.313-3.953
	v-9.949h3.085v8.668c0,1.963,0.17,2.721,2.153,2.721c2.377,0,3.133-1.074,3.133-3.455v-7.934h3.086v13.748H446.065z"/>
<path fill="#FFFFFF" d="M459.92,204.83c0-1.65-0.811-1.65-2.45-1.65c-1.641,0-2.769,0-2.769,1.799c0,1.365,0.344,1.418,3.038,1.55
	c3.038,0.154,5.726-0.079,5.726,4.377c0,3.714-2.741,4.085-5.995,4.085c-3.498,0-5.848,0-5.848-4.482h3.079
	c0.054,1.99,0.493,2.229,2.769,2.229c1.836,0,2.915,0.053,2.915-1.831c0-1.206-0.073-1.81-3.181-1.863
	c-4.725-0.079-5.582-0.762-5.582-4.265c0-3.778,2.546-3.853,5.848-3.853c2.523,0,5.529,0.053,5.529,3.905H459.92z"/>
<path fill="#FFFFFF" d="M468.656,214.831h-3.085v-13.748h3.085V214.831z M468.656,197.993h-3.085v-2.805h3.085V197.993z"/>
<polygon fill="#FFFFFF" points="474.578,206.423 475.335,206.423 478.938,201.083 482.409,201.083 477.858,207.55 483.341,214.831 
	479.62,214.831 475.335,208.672 474.578,208.672 474.578,214.831 471.492,214.831 471.492,195.188 474.578,195.188 "/>
<rect x="485.373" y="211.243" fill="#FFFFFF" width="3.085" height="3.588"/>
<rect x="458.538" y="146.852" fill="#FFFFFF" width="9.05" height="24.206"/>
<rect x="389.153" y="146.852" fill="#FFFFFF" width="9.049" height="24.206"/>
<rect x="319.773" y="146.852" fill="#FFFFFF" width="9.044" height="24.206"/>
<rect x="250.382" y="146.852" fill="#FFFFFF" width="9.055" height="24.206"/>
<rect x="181.002" y="146.852" fill="#FFFFFF" width="9.049" height="24.206"/>
<rect x="111.617" y="146.852" fill="#FFFFFF" width="9.049" height="24.206"/>
<rect x="42.234" y="146.852" fill="#FFFFFF" width="9.049" height="24.206"/>
<rect x="284.498" y="146.547" fill="#FFFFFF" width="9.652" height="10.329"/>
<rect x="215.113" y="146.547" fill="#FFFFFF" width="9.657" height="10.329"/>
<rect x="145.732" y="146.547" fill="#FFFFFF" width="9.652" height="10.329"/>
<rect x="76.347" y="146.547" fill="#FFFFFF" width="9.652" height="10.329"/>
<rect x="353.884" y="146.547" fill="#FFFFFF" width="9.652" height="10.329"/>
<rect x="423.544" y="146.547" fill="#FFFFFF" width="9.652" height="10.329"/>
<path fill="#FFFFFF" d="M42.231,103.567h8.292v4.779h0.093c1.013-3.99,4.606-5.175,8.612-5.175c6.45,0,8.985,2.958,8.985,9.906
	c0,0.643-0.048,1.333-0.095,2.217h-7.642c0-3.201-0.693-4.728-4.244-4.728c-3.038,0-5.154,1.23-5.154,4.238V128.7h-8.848V103.567z"
	/>
<path fill="#FFFFFF" d="M86.544,123.181c6.085,0,6.636-0.984,6.636-2.662c0-1.874-0.508-2.562-5.392-2.562h-3.916
	c-3.731,0-4.514,0.887-4.514,2.958c0,1.624,1.201,2.265,4.657,2.265H86.544z M70.791,119.879c0-6.851,4.424-7.248,12.991-7.248
	c4.836,0,7.509,0.151,9.213,2.024v-2.22c0-2.466-0.693-3.35-4.144-3.35h-5.207c-2.577,0-3.318,0.244-3.408,2.021h-8.568
	c0-6.803,3.133-7.938,10.594-7.938h10.271c6.08,0,9.303,3.106,9.303,9.02v16.51h-8.382v-2.86c-2.44,2.714-3.366,3.257-7.784,3.257
	h-6.033c-5.392,0.045-8.848-1.235-8.848-7.149V119.879z"/>
<path fill="#FFFFFF" d="M114.781,117.614c0,2.807,0.418,4.384,4.657,4.384h5.202c3.503,0,5.345-0.839,5.345-4.633v-2.463
	c0-3.794-1.842-4.633-5.345-4.633h-5.202c-4.239,0-4.657,1.577-4.657,4.387V117.614z M106.214,113.868
	c0-6.406,1.381-10.695,12.578-10.695h2.625c3.641,0,7.372,1.083,7.922,5.027h0.095V93.021h8.843v35.682h-8.292v-4.636h-0.09
	c-0.969,3.106-3.181,5.03-8.52,5.03h-2.583c-11.197,0-12.578-4.286-12.578-10.697V113.868z"/>
<path fill="#FFFFFF" d="M153.019,128.7h-8.848v-25.133h8.848V128.7z M153.019,100.413h-8.848v-7.392h8.848V100.413z"/>
<path fill="#FFFFFF" d="M167.159,117.318c0,3.598,1.979,4.68,6.033,4.68h2.122c5.709,0,6.816-0.786,6.816-4.141v-3.448
	c0-3.353-1.106-4.141-6.816-4.141h-2.122c-4.053,0-6.033,1.084-6.033,4.683V117.318z M158.311,113.127
	c0-8.279,5.207-9.957,9.721-9.957h13.224c4.514,0,9.716,1.677,9.716,9.957v6.012c0,8.281-5.202,9.958-9.716,9.958h-13.224
	c-4.514,0-9.721-1.677-9.721-9.958V113.127z"/>
<path fill="#FFFFFF" d="M212.896,117.614c0,2.807,0.418,4.384,4.657,4.384h5.202c3.503,0,5.345-0.839,5.345-4.633v-2.463
	c0-3.794-1.842-4.633-5.345-4.633h-5.202c-4.239,0-4.657,1.577-4.657,4.387V117.614z M204.328,113.868
	c0-6.406,1.387-10.695,12.579-10.695h2.625c3.641,0,7.372,1.083,7.927,5.027h0.09V93.021h8.848v35.682h-8.297v-4.636h-0.09
	c-0.968,3.106-3.18,5.03-8.52,5.03h-2.582c-11.192,0-12.579-4.286-12.579-10.697V113.868z"/>
<path fill="#FFFFFF" d="M272.322,128.7h-8.842v-4.04h-0.092c-1.566,3.498-4.656,4.437-9.403,4.437
	c-5.477,0-13.129-0.249-13.129-11.089v-14.441h8.848v14.441c0,2.464,1.842,3.694,5.709,3.694h2.027c3.783,0,6.039-1.874,6.039-5.472
	v-12.664h8.842V128.7z"/>
<path fill="#FFFFFF" d="M287.98,128.7h-8.838v-25.133h8.838V128.7z M287.98,100.413h-8.838v-7.392h8.838V100.413z"/>
<path fill="#FFFFFF" d="M303.052,120.866c0,1.378,0.454,2.315,5.476,2.315h3.133c4.191,0,5.255-0.344,5.255-1.873
	c0-1.479-0.692-2.07-3.825-2.07h-8.293c-8.244-0.047-10.684-1.971-10.684-8.871c0-6.26,4.699-7.197,10.773-7.197h6.176
	c11.563,0,13.584,1.725,13.679,7.641h-8.842c-0.466-1.479-1.291-1.725-6.594-1.725c-5.106,0-6.075,0.148-6.075,1.871
	c0,1.087,0.688,1.479,5.297,1.479h6.129c10.593,0,11.377,3.797,11.377,8.282c0,6.652-2.487,8.376-12.573,8.376h-8.388
	c-8.149,0-11.145-2.018-11.145-8.229H303.052z"/>
<path fill="#FFFFFF" d="M338.845,117.365c0,3.794,1.842,4.633,5.34,4.633h5.207c4.233,0,4.645-1.577,4.645-4.384v-2.958
	c0-2.808-0.411-4.387-4.645-4.387h-5.207c-3.498,0-5.34,0.838-5.34,4.633V117.365z M330.547,93.021h8.842V108.2h0.091
	c0.561-3.942,4.286-5.03,7.932-5.03h2.62c11.197,0,12.578,4.292,12.578,10.697v4.532c0,6.408-1.381,10.697-12.578,10.697h-2.582
	c-5.34,0-7.553-1.923-8.521-5.027h-0.084v4.63h-8.298V93.021z"/>
<path fill="#FFFFFF" d="M399.778,128.7h-8.842v-4.04h-0.096c-1.561,3.498-4.646,4.437-9.393,4.437
	c-5.482,0-13.129-0.249-13.129-11.089v-14.441h8.848v14.441c0,2.464,1.842,3.694,5.705,3.694h2.031c3.779,0,6.033-1.874,6.033-5.472
	v-12.664h8.842V128.7z"/>
<path fill="#FFFFFF" d="M405.166,103.567h8.292v4.779h0.095c1.017-3.99,4.604-5.175,8.615-5.175c6.451,0,8.98,2.958,8.98,9.906
	c0,0.643-0.048,1.333-0.09,2.217h-7.646c0-3.201-0.693-4.728-4.238-4.728c-3.038,0-5.16,1.23-5.16,4.238V128.7h-8.848V103.567z"/>
<path fill="#FFFFFF" d="M453.813,120.125c4.377,0,5.388-1.233,5.388-5.027c0-3.842-1.011-5.128-5.388-5.128h-4.323
	c-4.381,0-5.396,1.286-5.396,5.128c0,3.794,1.016,5.027,5.396,5.027H453.813z M435.524,113.029c0-7.787,3.736-9.858,10.785-9.858
	h5.154c4.471,0,5.528,0.593,7.736,3.844h0.095v-3.448h8.293v23.557c0,5.223-1.566,10.348-12.67,10.348h-9.763
	c-5.938,0-9.302-1.526-9.302-7.834h9.116c0,1.183,0.736,1.923,2.165,1.923h6.403c3.868,0,5.757-1.328,5.757-5.57v-1.675
	c-1.746,1.871-3.222,2.615-7.921,2.615h-4.652c-8.567,0-11.197-3.652-11.197-10.452V113.029z"/>
<path fill="#FFFFFF" d="M121.628,52.729c-2.302,2.799-5.196,4.202-8.684,4.202h-11.213c-3.169,0-5.471,0.36-6.895,1.061
	c-2.016,1.045-3.244,2.974-3.678,5.789h31.687V74.32H80.343l-0.08-5.358v-0.529c0-14.69,7.155-22.042,21.469-22.042h11.213
	c1.418,0,2.127-1.122,2.127-3.382c0-2.207-0.709-3.326-2.127-3.326H82.311V29.139h30.634c3.487,0,6.382,1.405,8.684,4.207
	c2.127,2.696,3.186,5.945,3.186,9.747C124.814,46.89,123.756,50.107,121.628,52.729"/>
<path fill="#FFFFFF" d="M67.103,43.543c0-2.569-1.28-3.86-3.826-3.86H49.653c-2.614,0-3.921,1.291-3.921,3.86v2.18
	c0,2.471,1.308,3.688,3.921,3.688h17.45V43.543z M72.939,70.3c-2.577,2.684-5.805,4.022-9.678,4.022H42.369V63.781h20.892
	c2.562,0,3.842-1.246,3.842-3.749v-0.079H49.613c-3.868,0-7.146-1.339-9.811-4.048c-2.614-2.741-3.929-6.12-3.929-10.168v-2.193
	c0-4.144,1.347-7.57,4.017-10.276c2.72-2.741,5.964-4.13,9.74-4.13h13.663c3.757,0,6.975,1.389,9.668,4.13
	c2.672,2.69,3.996,6.104,3.996,10.276v16.489C76.956,64.173,75.617,67.594,72.939,70.3"/>
<rect x="128.55" y="63.773" fill="#FFFFFF" width="11.774" height="10.549"/>
<path fill="#FFFFFF" d="M187.643,52.729c-2.302,2.799-5.196,4.202-8.684,4.202h-11.213c-3.169,0-5.472,0.36-6.895,1.061
	c-2.016,1.045-3.244,2.974-3.678,5.789h31.687V74.32h-42.498l-0.08-5.358v-0.529c0-14.69,7.149-22.042,21.463-22.042h11.213
	c1.418,0,2.127-1.122,2.127-3.382c0-2.207-0.709-3.326-2.127-3.326h-30.634V29.139h30.634c3.487,0,6.382,1.405,8.684,4.207
	c2.127,2.696,3.186,5.945,3.186,9.747C190.829,46.89,189.771,50.107,187.643,52.729"/>
</svg>
