<?xml version="1.0" encoding="UTF-8" standalone="no"?>
<svg
   width="400"
   height="114.82584"
   fill="none"
   version="1.1"
   id="svg8"
   sodipodi:docname="t-online.de Logo 03.05.2022.svg"
   inkscape:version="1.1.1 (3bf5ae0d25, 2021-09-20)"
   xmlns:inkscape="http://www.inkscape.org/namespaces/inkscape"
   xmlns:sodipodi="http://sodipodi.sourceforge.net/DTD/sodipodi-0.dtd"
   xmlns="http://www.w3.org/2000/svg"
   xmlns:svg="http://www.w3.org/2000/svg">
  <defs
     id="defs12" />
  <sodipodi:namedview
     id="namedview10"
     pagecolor="#ffffff"
     bordercolor="#111111"
     borderopacity="1"
     inkscape:pageshadow="0"
     inkscape:pageopacity="0"
     inkscape:pagecheckerboard="1"
     showgrid="false"
     inkscape:zoom="3.4675"
     inkscape:cx="200"
     inkscape:cy="57.534247"
     inkscape:window-width="1600"
     inkscape:window-height="829"
     inkscape:window-x="-8"
     inkscape:window-y="-8"
     inkscape:window-maximized="1"
     inkscape:current-layer="svg8" />
  <path
     d="M 0,33.758414 V 23.84053 H 8.7076545 V 20.401876 L 19.751753,6.1991778 h 5.377021 V 23.84053 h 10.57801 v 9.917884 H 25.128774 V 58.89519 c 0,3.230614 0.350067,5.355018 1.0522,6.36921 0.740141,1.014193 2.26043,1.520289 4.558867,1.520289 1.284244,0 2.746521,-0.26205 4.380832,-0.78815 v 11.328153 a 50.429582,50.429582 0 0 1 -9.873876,1.014192 c -1.910363,0 -3.720707,-0.132025 -5.435033,-0.394074 -5.026955,-0.78815 -8.281573,-3.080586 -9.761855,-6.875307 A 18.109441,18.109441 0 0 1 8.9416989,66.560647 C 8.7856693,65.094368 8.7076545,62.351847 8.7076545,58.331083 V 33.758414 Z m 59.407287,9.679839 v 9.497805 H 37.459117 V 43.438253 Z M 94.437943,22.204219 c 3.896741,0 7.401407,0.546104 10.519997,1.636311 6.15517,2.180414 10.75204,5.993138 13.79062,11.442174 2.33845,4.206799 3.50667,9.353777 3.50667,15.440933 0,8.67965 -2.76653,15.610967 -8.29758,20.795952 -5.02695,4.696892 -11.55219,7.045338 -19.577718,7.045338 -8.531621,0 -15.350916,-2.630499 -20.453886,-7.889499 -5.026955,-5.148978 -7.539433,-11.930266 -7.539433,-20.345865 0,-8.229564 2.436463,-14.860824 7.305388,-19.895781 5.299007,-5.485042 12.214321,-8.227563 20.745942,-8.227563 z m -0.700133,11.10411 c -1.676318,0 -3.1566,0.394074 -4.440844,1.184225 -4.326822,2.592492 -6.489233,7.871495 -6.489233,15.837009 0,2.592492 0.254049,5.070963 0.760145,7.439413 0.662126,2.966564 1.928366,5.335014 3.800722,7.101349 1.868355,1.728329 4.05077,2.592493 6.543243,2.592493 1.560297,0 3.00057,-0.358068 4.324822,-1.072204 4.400835,-2.366449 6.603255,-7.645452 6.603255,-15.837009 0,-2.516478 -0.23404,-4.900931 -0.70013,-7.15736 -0.62412,-3.080585 -1.89036,-5.521049 -3.80073,-7.325392 -1.868351,-1.840349 -4.070769,-2.762524 -6.60125,-2.762524 z m 35.99684,43.622288 V 23.84053 h 16.53914 v 4.900931 c 3.85673,-4.356828 8.9617,-6.535242 15.31091,-6.535242 7.3634,0 12.74042,2.36645 16.12907,7.101349 2.1044,2.930557 3.1566,7.513428 3.1566,13.750613 V 76.930617 H 164.44724 V 45.538652 c 0,-3.680699 -0.42808,-6.275192 -1.28424,-7.777477 -1.36426,-2.36845 -3.60468,-3.550675 -6.72128,-3.550675 -4.05077,0 -6.99332,1.89636 -8.82367,5.691081 -0.97419,1.954372 -1.46028,5.581061 -1.46028,10.878067 v 26.150969 z m 64.10818,0 V 0 h 16.42112 V 76.930617 Z M 224.64068,15.386924 V 0 h 17.41531 v 15.386924 z m 0.46809,61.543693 V 23.84053 h 16.42112 v 53.090087 z m 30.03771,0 V 23.84053 h 16.53714 v 4.900931 c 3.85873,-4.356828 8.9617,-6.535242 15.31291,-6.535242 7.3634,0 12.73842,2.36645 16.12906,7.101349 2.1024,2.930557 3.1546,7.513428 3.1546,13.750613 V 76.930617 H 289.85907 V 45.538652 c 0,-3.680699 -0.42808,-6.275192 -1.28624,-7.777477 -1.36226,-2.36845 -3.60269,-3.550675 -6.71928,-3.550675 -4.05277,0 -6.99333,1.89636 -8.82567,5.691081 -0.97219,1.954372 -1.46028,5.581061 -1.46028,10.878067 V 76.930617 Z M 367.64185,54.218301 H 331.0589 c 0.46809,9.129735 3.91474,13.694602 10.34397,13.694602 3.93474,0 6.72127,-1.880357 8.35758,-5.63507 h 16.47914 c -0.78015,2.816535 -2.22043,5.447035 -4.32483,7.889499 -4.7529,5.599064 -11.51218,8.397595 -20.27785,8.397595 -8.37759,0 -15.05886,-2.42446 -20.04581,-7.271381 -5.259,-5.146978 -7.8895,-12.022284 -7.8895,-20.625919 0,-7.965514 2.39646,-14.596774 7.18937,-19.89578 5.14298,-5.711085 11.82425,-8.565628 20.04381,-8.565628 6.54524,0 12.0983,1.89636 16.65516,5.691081 3.31263,2.780529 5.7671,6.257189 7.3634,10.427982 1.5983,4.132785 2.49448,9.429791 2.68851,15.893019 z m -17.3553,-9.469799 c -0.23404,-2.440463 -0.72213,-4.508856 -1.46227,-6.199178 -1.67432,-3.832728 -4.34283,-5.749092 -8.00552,-5.749092 -1.75434,0 -3.29263,0.490093 -4.61688,1.466279 -2.88255,2.028385 -4.57887,5.523049 -5.08497,10.481991 z"
     fill="#171b26"
     id="path2"
     style="stroke-width:2.00038" />
  <path
     fill="#e20074"
     d="M 380.05221,57.692962 H 400 v 19.237655 h -19.94779 z"
     id="path4"
     style="stroke-width:2.00038" />
  <path
     d="M 15.793001,114.56577 H 13.278523 L 3.7247077,99.94499 v 14.62078 H 1.2082296 V 95.594163 H 3.7247077 L 13.304528,110.27695 V 95.594163 h 2.488473 z m 15.176883,0 c -0.140026,-0.28006 -0.254048,-0.77415 -0.340064,-1.48628 -1.120213,1.16422 -2.460468,1.74633 -4.014763,1.74633 -1.390264,0 -2.532481,-0.39208 -3.426651,-1.17223 a 3.8407297,3.8407297 0 0 1 -1.330253,-2.99857 c 0,-1.46627 0.556106,-2.60449 1.668317,-3.41264 1.120213,-0.81616 2.694512,-1.22424 4.718897,-1.22424 h 2.346445 v -1.10821 c 0,-0.84216 -0.254048,-1.51228 -0.756143,-2.00638 -0.504096,-0.50409 -1.248237,-0.75614 -2.230424,-0.75614 -0.860163,0 -1.5803,0.21804 -2.162411,0.65212 -0.58211,0.43408 -0.874166,0.96018 -0.874166,1.5763 h -2.424461 c 0,-0.70413 0.248048,-1.38026 0.744142,-2.03238 0.504096,-0.66013 1.180224,-1.18023 2.032386,-1.5643 0.860163,-0.38007 1.804343,-0.57211 2.828537,-0.57211 1.624309,0 2.898551,0.40808 3.820726,1.22423 0.920175,0.80816 1.396266,1.92437 1.432272,3.34864 v 6.48923 c 0,1.29425 0.164032,2.32244 0.494094,3.08659 v 0.21004 h -2.52848 z m -4.00076,-1.83835 c 0.754143,0 1.470279,-0.19604 2.148408,-0.58611 0.68013,-0.39008 1.170223,-0.90017 1.47428,-1.52429 v -2.89255 h -1.890359 c -2.954561,0 -4.432842,0.86416 -4.432842,2.59249 0,0.75614 0.252048,1.34626 0.756144,1.77234 0.504095,0.42608 1.152219,0.64012 1.942369,0.64012 z m 17.871396,0.13002 c 0.860163,0 1.612306,-0.26005 2.256428,-0.78015 0.640122,-0.52209 0.99819,-1.17422 1.068203,-1.95637 h 2.280434 c -0.04401,0.80816 -0.320061,1.5783 -0.834159,2.30644 a 5.4810414,5.4810414 0 0 1 -2.060391,1.74633 5.8851182,5.8851182 0 0 1 -2.710515,0.65213 c -1.920365,0 -3.448656,-0.64012 -4.586872,-1.91637 -1.130215,-1.28424 -1.694322,-3.04057 -1.694322,-5.263 v -0.40407 c 0,-1.37226 0.252048,-2.5925 0.756144,-3.6607 a 5.7710965,5.7710965 0 0 1 2.162411,-2.49047 c 0.94818,-0.59011 2.064392,-0.88417 3.350636,-0.88417 1.580301,0 2.89255,0.47209 3.936748,1.42027 1.0502,0.94618 1.610306,2.17441 1.68032,3.6867 h -2.280434 c -0.07001,-0.91217 -0.418079,-1.66032 -1.042198,-2.24043 -0.618117,-0.59211 -1.382262,-0.88616 -2.294436,-0.88616 -1.226233,0 -2.176413,0.44208 -2.854542,1.32825 -0.670127,0.87816 -1.004191,2.15041 -1.004191,3.81872 v 0.45609 c 0,1.62431 0.334064,2.87455 1.004191,3.75071 0.668127,0.87817 1.624309,1.31625 2.866545,1.31625 z m 13.130494,-10.68403 c 1.068203,-1.31225 2.458468,-1.96637 4.170793,-1.96637 2.980566,0 4.482852,1.68032 4.508857,5.04096 v 9.31777 h -2.410458 v -9.32978 c -0.01,-1.01619 -0.244047,-1.76833 -0.704134,-2.25442 -0.452086,-0.4861 -1.160221,-0.73014 -2.124404,-0.73014 a 3.4806613,3.4806613 0 0 0 -2.060391,0.62612 4.2488073,4.2488073 0 0 0 -1.380263,1.64031 v 10.04791 H 55.558556 V 94.551965 h 2.412458 z m 21.510087,0.45609 a 7.2293736,7.2293736 0 0 0 -1.186225,-0.09 c -1.5803,0 -2.654504,0.67213 -3.220612,2.02039 v 10.0059 h -2.410458 v -14.09868 h 2.346446 l 0.04001,1.62831 c 0.79015,-1.26024 1.910363,-1.88836 3.360638,-1.88836 0.470089,0 0.826157,0.06 1.070203,0.18003 z m 7.249378,11.93627 h -2.410458 v -14.09868 h 2.410458 z M 84.123984,96.726378 A 1.4602775,1.4602775 0 0 1 84.47605,95.73619 c 0.244047,-0.268051 0.600114,-0.404077 1.070204,-0.404077 0.468089,0 0.824156,0.136026 1.068203,0.404077 0.242046,0.270051 0.364069,0.600114 0.364069,0.990188 0,0.392075 -0.120023,0.718136 -0.364069,0.978186 -0.244047,0.260049 -0.600114,0.390074 -1.070204,0.390074 -0.468089,0 -0.824156,-0.130025 -1.068203,-0.390074 a 1.4062672,1.4062672 0 0 1 -0.352066,-0.978186 z m 14.536762,16.131062 c 0.860163,0 1.612304,-0.26005 2.256424,-0.78015 0.64213,-0.52209 1.00019,-1.17422 1.06821,-1.95637 h 2.28043 c -0.044,0.80816 -0.32006,1.5783 -0.83416,2.30644 a 5.4810414,5.4810414 0 0 1 -2.06039,1.74633 5.8871186,5.8871186 0 0 1 -2.710514,0.65213 c -1.920365,0 -3.448656,-0.64012 -4.586872,-1.91637 -1.130215,-1.28424 -1.694322,-3.04057 -1.694322,-5.263 v -0.40407 c 0,-1.37226 0.252048,-2.5925 0.756144,-3.6607 a 5.7710965,5.7710965 0 0 1 2.162411,-2.49047 c 0.94818,-0.59011 2.064392,-0.88417 3.350636,-0.88417 1.580297,0 2.892547,0.47209 3.936747,1.42027 1.0502,0.94618 1.61031,2.17441 1.68032,3.6867 h -2.28043 c -0.07,-0.91217 -0.41808,-1.66032 -1.0422,-2.24043 -0.61812,-0.59211 -1.382263,-0.88616 -2.294437,-0.88616 -1.226233,0 -2.176413,0.44208 -2.854542,1.32825 -0.670127,0.87816 -1.004191,2.15041 -1.004191,3.81872 v 0.45609 c 0,1.62431 0.334064,2.87455 1.004191,3.75071 0.668127,0.87817 1.624309,1.31625 2.866545,1.31625 z m 13.130494,-10.68403 c 1.0682,-1.31225 2.45847,-1.96637 4.17079,-1.96637 2.98057,0 4.48285,1.68032 4.50886,5.04096 v 9.31777 h -2.40846 v -9.32978 c -0.01,-1.01619 -0.24404,-1.76833 -0.70413,-2.25442 -0.45209,-0.4861 -1.16022,-0.73014 -2.12441,-0.73014 a 3.4806613,3.4806613 0 0 0 -2.06039,0.62612 4.2488073,4.2488073 0 0 0 -1.38026,1.64031 v 10.04791 h -2.41246 V 94.551965 h 2.41246 v 7.621445 z m 17.96341,-5.12097 v 3.41465 h 2.6345 v 1.86235 h -2.6345 v 8.74166 c 0,0.56611 0.12003,0.99219 0.35207,1.28025 0.23605,0.27605 0.63412,0.41608 1.20023,0.41608 0.27805,0 0.66012,-0.052 1.14622,-0.15603 v 1.95437 c -0.63412,0.17203 -1.25024,0.26005 -1.85036,0.26005 -1.0782,0 -1.89035,-0.32607 -2.43846,-0.97819 -0.5461,-0.65012 -0.82015,-1.5763 -0.82015,-2.77453 v -8.74166 h -2.56849 v -1.86435 h 2.56849 v -3.41465 z m 13.71661,17.77338 c -1.91236,0 -3.46666,-0.62612 -4.66689,-1.87636 -1.20023,-1.26024 -1.79834,-2.94056 -1.79834,-5.04096 v -0.44408 c 0,-1.40027 0.26605,-2.6465 0.79615,-3.74071 a 6.2811934,6.2811934 0 0 1 2.24043,-2.58049 5.6410718,5.6410718 0 0 1 3.12859,-0.93618 c 1.83435,0 3.26062,0.60211 4.27481,1.81034 1.0162,1.20623 1.52629,2.93656 1.52629,5.18499 v 1.00419 h -9.55381 c 0.034,1.39026 0.43808,2.51448 1.21223,3.37464 0.78015,0.85016 1.77234,1.27624 2.97056,1.27624 0.85217,0 1.5723,-0.17403 2.16442,-0.5201 0.59011,-0.34806 1.10821,-0.80815 1.55029,-1.38026 l 1.47228,1.14422 c -1.18022,1.81634 -2.95456,2.72452 -5.31701,2.72452 z m -0.30006,-12.6384 c -0.97218,0 -1.79034,0.35606 -2.45046,1.0682 -0.66013,0.70213 -1.06821,1.69232 -1.22424,2.97056 h 7.06335 v -0.18203 c -0.07,-1.22623 -0.40008,-2.17241 -0.99019,-2.84054 -0.59011,-0.67813 -1.39027,-1.01619 -2.39846,-1.01619 z m 13.28653,-1.72033 0.078,1.77234 c 1.07621,-1.35626 2.48447,-2.03239 4.2208,-2.03239 2.98057,0 4.48486,1.68032 4.51086,5.04096 v 9.31777 h -2.41046 v -9.32978 c -0.008,-1.01619 -0.24404,-1.76833 -0.70413,-2.25442 -0.45209,-0.4861 -1.16022,-0.73014 -2.1244,-0.73014 -0.78015,0 -1.46828,0.20804 -2.0604,0.62612 a 4.2448065,4.2448065 0 0 0 -1.38026,1.64031 v 10.04791 h -2.41246 v -14.09868 h 2.28044 z m 25.05876,14.09868 v -12.23633 h -2.22843 v -1.86235 h 2.22843 v -1.448276 c 0,-1.512288 0.40407,-2.68051 1.21223,-3.504666 0.80815,-0.826157 1.95037,-1.240236 3.42865,-1.240236 0.55611,0 1.10621,0.07601 1.65431,0.224043 l -0.13002,1.954371 a 6.9393185,6.9393185 0 0 0 -1.30425,-0.118022 c -0.78015,0 -1.38626,0.230043 -1.81034,0.690131 -0.42608,0.452086 -0.64012,1.104209 -0.64012,1.954371 v 1.486284 h 3.01257 v 1.86235 h -3.01257 v 12.23633 h -2.41046 z m 19.20365,-1.39427 c -0.94018,1.10221 -2.31644,1.65432 -4.13279,1.65432 -1.50228,0 -2.6505,-0.43409 -3.44065,-1.30425 -0.78015,-0.87617 -1.17823,-2.17041 -1.18623,-3.88074 v -9.17374 h 2.41246 v 9.10773 c 0,2.13641 0.86817,3.20461 2.6065,3.20461 1.84035,0 3.06658,-0.68613 3.67469,-2.05839 v -10.25395 h 2.41246 v 14.09868 h -2.29443 z m -7.3394,-16.471127 c 0,-0.390074 0.11802,-0.716136 0.35207,-0.976185 0.24405,-0.270052 0.60011,-0.404077 1.0702,-0.404077 0.46809,0 0.82416,0.134025 1.06821,0.404077 a 1.3802622,1.3802622 0 0 1 0.36406,0.976185 c 0,0.392075 -0.12002,0.718137 -0.36406,0.978186 -0.24405,0.260049 -0.60012,0.390074 -1.06821,0.390074 -0.47009,0 -0.82615,-0.130025 -1.0702,-0.390074 a 1.4062672,1.4062672 0 0 1 -0.35207,-0.978186 z m 5.60507,0.026 a 1.4602775,1.4602775 0 0 1 0.35206,-0.990188 c 0.24405,-0.268051 0.60012,-0.404077 1.06821,-0.404077 0.47009,0 0.82615,0.136026 1.0702,0.404077 0.24205,0.270051 0.36407,0.600114 0.36407,0.990188 a 1.3802622,1.3802622 0 0 1 -0.36407,0.978186 c -0.24405,0.260049 -0.60011,0.390074 -1.0702,0.390074 -0.46809,0 -0.82416,-0.130025 -1.06821,-0.390074 a 1.4062672,1.4062672 0 0 1 -0.35206,-0.978186 z m 16.97522,5.903117 a 7.2353747,7.2353747 0 0 0 -1.18622,-0.09 c -1.5823,0 -2.65451,0.67213 -3.22061,2.02039 v 10.0059 h -2.41046 V 100.4671 h 2.34644 l 0.038,1.62831 c 0.79215,-1.26024 1.91236,-1.88836 3.36264,-1.88836 0.47009,0 0.82616,0.06 1.0702,0.18003 z m 14.03267,11.93627 V 95.594163 h 5.35702 c 1.65031,0 3.11059,0.364069 4.37883,1.094208 a 7.363399,7.363399 0 0 1 2.93256,3.114592 c 0.69413,1.346257 1.04619,2.892547 1.0562,4.638877 v 1.21023 c 0,1.79034 -0.34807,3.35864 -1.0442,4.7049 a 7.2333743,7.2333743 0 0 1 -2.95856,3.10059 c -1.27625,0.72013 -2.76653,1.0902 -4.46885,1.10621 h -5.253 z m 2.50247,-16.913211 v 14.866821 h 2.6325 c 1.92837,0 3.42866,-0.60012 4.49686,-1.79834 1.0762,-1.20023 1.61631,-2.90656 1.61631,-5.12098 v -1.10621 c 0,-2.15441 -0.5081,-3.82672 -1.52629,-5.016944 -1.0062,-1.200228 -2.44047,-1.806344 -4.30082,-1.824347 z m 22.89035,17.173261 c -1.91036,0 -3.46666,-0.62612 -4.66488,-1.87636 -1.20023,-1.26024 -1.79834,-2.94056 -1.79834,-5.04096 v -0.44408 c 0,-1.40027 0.26405,-2.6465 0.79415,-3.74071 a 6.2531881,6.2531881 0 0 1 2.24242,-2.58049 5.637071,5.637071 0 0 1 3.1266,-0.93618 c 1.83434,0 3.25862,0.60211 4.27681,1.81034 1.01619,1.20623 1.52429,2.93656 1.52429,5.18499 v 1.00419 h -9.55382 c 0.034,1.39026 0.43809,2.51448 1.21223,3.37464 0.78215,0.85016 1.77234,1.27624 2.97057,1.27624 0.85216,0 1.5743,-0.17403 2.16441,-0.5201 0.59011,-0.34806 1.10821,-0.80815 1.55029,-1.38026 l 1.47428,1.14422 c -1.18222,1.81634 -2.95456,2.72452 -5.31901,2.72452 z m -0.30005,-12.6384 c -0.97219,0 -1.78834,0.35606 -2.44847,1.0682 -0.66212,0.70213 -1.0702,1.69232 -1.22623,2.97056 h 7.06534 v -0.18203 c -0.07,-1.22623 -0.40008,-2.17241 -0.99219,-2.84054 -0.59011,-0.67813 -1.39026,-1.01619 -2.39845,-1.01619 z m 19.71174,10.98408 c -0.93818,1.10221 -2.31444,1.65432 -4.13078,1.65432 -1.50429,0 -2.65051,-0.43409 -3.44066,-1.30425 -0.78215,-0.87617 -1.17822,-2.17041 -1.18622,-3.88074 v -9.17374 h 2.41046 v 9.10773 c 0,2.13641 0.87016,3.20461 2.60649,3.20461 1.84235,0 3.06858,-0.68613 3.6767,-2.05839 v -10.25395 h 2.41046 v 14.09868 h -2.29444 z m 11.69622,-16.119055 v 3.414645 h 2.6325 v 1.86235 h -2.6325 v 8.74166 c 0,0.56611 0.11803,0.99219 0.35207,1.28025 0.23405,0.27605 0.63412,0.41608 1.19823,0.41608 0.27805,0 0.66012,-0.052 1.14822,-0.15603 v 1.95437 c -0.63412,0.17203 -1.25224,0.26005 -1.85236,0.26005 -1.0762,0 -1.88835,-0.32607 -2.43646,-0.97819 -0.5481,-0.65012 -0.82015,-1.5763 -0.82015,-2.77453 v -8.74166 h -2.56849 v -1.86435 h 2.56849 v -3.414645 z m 16.07506,13.772615 c 0,-0.65213 -0.24805,-1.15422 -0.74414,-1.51029 -0.4861,-0.36607 -1.34226,-0.68013 -2.56649,-0.94018 -1.21623,-0.26005 -2.18642,-0.57211 -2.90655,-0.93618 -0.71214,-0.36607 -1.24224,-0.80015 -1.59031,-1.30424 a 3.1505986,3.1505986 0 0 1 -0.50809,-1.79835 c 0,-1.15422 0.48609,-2.1324 1.46028,-2.93055 0.98018,-0.80016 2.23242,-1.20023 3.75271,-1.20023 1.5983,0 2.89455,0.41408 3.88474,1.24023 0.99819,0.82416 1.49828,1.88036 1.49828,3.16461 h -2.42446 c 0,-0.66013 -0.28205,-1.22824 -0.84616,-1.70633 -0.55611,-0.47809 -1.26024,-0.71613 -2.1124,-0.71613 -0.87817,0 -1.5643,0.19003 -2.05839,0.5721 a 1.8043428,1.8043428 0 0 0 -0.74414,1.50029 c 0,0.58011 0.23004,1.02019 0.69213,1.31425 0.46009,0.29606 1.29024,0.57811 2.48847,0.84616 1.20823,0.27005 2.18642,0.59211 2.93256,0.96418 0.74814,0.37407 1.30024,0.82616 1.65631,1.35626 0.36407,0.5201 0.54611,1.16022 0.54611,1.91436 0,1.26024 -0.5041,2.27244 -1.51229,3.03658 -1.00619,0.75615 -2.31444,1.13422 -3.92275,1.13422 -1.12821,0 -2.1284,-0.20004 -2.99657,-0.60012 a 4.9269361,4.9269361 0 0 1 -2.04638,-1.66831 4.078775,4.078775 0 0 1 -0.73014,-2.33245 h 2.41045 c 0.044,0.80816 0.36607,1.45228 0.96419,1.93037 0.60811,0.46809 1.40827,0.70213 2.39845,0.70213 0.91218,0 1.64232,-0.18203 2.19042,-0.5461 0.55611,-0.37407 0.83416,-0.87017 0.83416,-1.48628 z m 13.61058,2.03238 c 0.86017,0 1.61231,-0.26005 2.25643,-0.78015 a 2.7605245,2.7605245 0 0 0 1.06821,-1.95637 h 2.28043 a 4.3808324,4.3808324 0 0 1 -0.83416,2.30644 5.4750403,5.4750403 0 0 1 -2.05839,1.74633 5.8931197,5.8931197 0 0 1 -2.71252,0.65213 c -1.92036,0 -3.44865,-0.64012 -4.58687,-1.91637 -1.13021,-1.28424 -1.69432,-3.04057 -1.69432,-5.263 v -0.40407 c 0,-1.37226 0.25205,-2.5925 0.75614,-3.6607 a 5.7710965,5.7710965 0 0 1 2.16242,-2.49047 c 0.94818,-0.59011 2.06439,-0.88417 3.35063,-0.88417 1.5803,0 2.89255,0.47209 3.93675,1.42027 1.0502,0.94618 1.61031,2.17441 1.68032,3.6867 h -2.28043 c -0.07,-0.91217 -0.41808,-1.66032 -1.0422,-2.24043 -0.61812,-0.59211 -1.38226,-0.88616 -2.29444,-0.88616 -1.22623,0 -2.17641,0.44208 -2.85454,1.32825 -0.67013,0.87816 -1.00419,2.15041 -1.00419,3.81872 v 0.45609 c 0,1.62431 0.33406,2.87455 1.00419,3.75071 0.66813,0.87817 1.62431,1.31625 2.86654,1.31625 z m 13.1305,-10.68403 c 1.0682,-1.31225 2.45847,-1.96637 4.17079,-1.96637 2.98057,0 4.48285,1.68032 4.50886,5.04096 v 9.31777 h -2.41046 v -9.32978 c -0.01,-1.01619 -0.24405,-1.76833 -0.70413,-2.25442 -0.45209,-0.4861 -1.16022,-0.73014 -2.12441,-0.73014 a 3.4806613,3.4806613 0 0 0 -2.06039,0.62612 4.2488073,4.2488073 0 0 0 -1.38026,1.64031 v 10.04791 h -2.41246 V 94.551965 h 2.41246 z m 17.31329,12.39236 H 344.2114 V 94.551965 h 2.41246 z m 14.97884,0 c -0.13802,-0.28006 -0.25204,-0.77415 -0.33806,-1.48628 -1.12221,1.16422 -2.45847,1.74633 -4.01476,1.74633 -1.39027,0 -2.53248,-0.39208 -3.42865,-1.17223 a 3.8407297,3.8407297 0 0 1 -1.32826,-2.99857 c 0,-1.46627 0.55611,-2.60449 1.66832,-3.41264 1.12021,-0.81616 2.69251,-1.22424 4.7169,-1.22424 h 2.34644 v -1.10821 c 0,-0.84216 -0.25205,-1.51228 -0.75614,-2.00638 -0.5041,-0.50409 -1.24624,-0.75614 -2.22842,-0.75614 -0.86017,0 -1.5803,0.21804 -2.16242,0.65212 -0.58211,0.43408 -0.87416,0.96018 -0.87416,1.5763 h -2.42446 c 0,-0.70413 0.24805,-1.38026 0.74214,-2.03238 0.50409,-0.66013 1.18222,-1.18023 2.03439,-1.5643 0.86016,-0.38007 1.80234,-0.57211 2.82853,-0.57211 1.62431,0 2.89855,0.40808 3.81873,1.22423 0.92017,0.80816 1.39826,1.92437 1.43427,3.34864 v 6.48923 c 0,1.29425 0.16403,2.32244 0.49409,3.08659 v 0.21005 z m -4.00076,-1.83835 c 0.75615,0 1.47228,-0.19604 2.15041,-0.58611 0.67813,-0.39008 1.16822,-0.90017 1.47228,-1.52429 v -2.89255 h -1.89036 c -2.95256,0 -4.43084,0.86416 -4.43084,2.59249 0,0.75614 0.25205,1.34626 0.75615,1.77234 0.50409,0.42608 1.15221,0.64012 1.94236,0.64012 z m 14.49676,-12.26033 0.08,1.77234 c 1.07621,-1.35626 2.48448,-2.03239 4.22281,-2.03239 2.98056,0 4.48285,1.68032 4.50885,5.04096 v 9.31777 h -2.41046 v -9.32978 c -0.01,-1.01619 -0.24404,-1.76833 -0.70413,-2.25442 -0.45208,-0.4861 -1.16022,-0.73014 -2.1244,-0.73014 a 3.4806613,3.4806613 0 0 0 -2.06039,0.62612 4.2488073,4.2488073 0 0 0 -1.38027,1.64031 v 10.04791 h -2.41245 v -14.09868 z m 14.26471,6.93332 c 0,-2.16442 0.5121,-3.90075 1.53829,-5.21299 1.0242,-1.32026 2.36645,-1.98038 4.02677,-1.98038 1.65031,0 2.95856,0.56411 3.92274,1.69232 v -7.34739 h 2.41246 v 20.0138 h -2.21642 l -0.11802,-1.51229 c -0.96419,1.18022 -2.30644,1.77234 -4.02677,1.77234 -1.63431,0 -2.96856,-0.67013 -4.00076,-2.00638 -1.02619,-1.33826 -1.53829,-3.08459 -1.53829,-5.239 z m 2.41046,0.27205 c 0,1.5983 0.33006,2.84854 0.99019,3.75271 0.66012,0.90217 1.57429,1.35426 2.73852,1.35426 1.52829,0 2.6445,-0.68613 3.34863,-2.05839 v -6.47523 c -0.72014,-1.33026 -1.82835,-1.99438 -3.32263,-1.99438 -1.18222,0 -2.1044,0.45608 -2.76452,1.36826 -0.66013,0.91217 -0.99019,2.26243 -0.99019,4.05277 z"
     fill="#171b26"
     id="path6"
     style="stroke-width:2.00038" />
</svg>
