<?xml version="1.0" encoding="UTF-8" standalone="no"?>
<svg
   xmlns:svg="http://www.w3.org/2000/svg"
   xmlns="http://www.w3.org/2000/svg"
   version="1.1"
   width="546.07843"
   height="232.38493"
   id="svg5766">
  <defs
     id="defs5768" />
  <g
     transform="translate(-76.960778,-416.16971)"
     id="layer1">
    <path
       d="m 605.94927,421.16971 -523.988492,0 0,222.38494 426.037862,0 c 0,0 21.06744,-0.24138 29.49503,-19.50143 l 79.25184,-186.58354 c 0,0 6.80422,-16.29997 -10.79624,-16.29997"
       id="path442"
       style="fill:#1a5681;fill-opacity:1;fill-rule:nonzero;stroke:none" />
    <path
       d="m 304.93937,448.98715 c -11.97301,0 -22.5625,6.01206 -22.5625,18.96875 0,10.3044 8.22685,15.68258 18.53125,19.3125 l 1.78125,0.6875 c 4.3179,1.66863 13.625,6.20214 13.625,14.9375 0,8.43965 -5.38965,13.53125 -14.125,13.53125 -9.22418,0 -15.29686,-7.16389 -17.75,-18.15625 l -3.15625,0 0.96875,15.6875 c 4.3209,4.02521 12.47315,5.90625 19.34375,5.90625 17.37114,0 24.25,-9.92579 24.25,-19.9375 0,-11.58076 -7.85955,-17.05991 -19.34375,-21.28125 l -3.125,-1.1875 c -6.5749,-2.45616 -12.09375,-6.67255 -12.09375,-12.5625 0,-7.1633 4.31899,-12.46875 12.5625,-12.46875 8.43965,0 13.14971,4.8066 14.71875,14.71875 l 3.0625,0 0,-13.8125 c -3.33724,-2.64927 -10.01302,-4.34375 -16.6875,-4.34375 z m -196.84375,1.5 0,2.84375 c 5.79037,0.29571 6.67513,0.58461 8.34375,6.375 2.25701,7.7547 5.10072,17.56244 7.75,27.375 l 8.34375,31.3125 7.5625,0 15.40625,-54.375 0.1875,0 c 5.98651,18.74405 11.40039,36.80774 16.40625,54.375 l 7.46875,0 9.8125,-35.03125 c 3.1411,-11.08892 5.37406,-19.73925 6.75,-23.46875 1.9613,-5.6908 3.04194,-6.17024 9.125,-6.5625 l 0,-2.84375 -22.46875,0 0,2.84375 6.09375,0.5625 c 2.35358,0.29571 2.54851,1.68913 2.15625,3.75 -0.58839,3.63295 -2.73435,11.68208 -5.1875,20.90625 l -7.28125,28.0625 -0.28125,0 c -5.59425,-18.15867 -11.19564,-36.3159 -16.59375,-54.375 l -7.375,0 -15,54.375 -0.1875,0 c -5.10242,-16.88232 -9.44635,-33.37142 -13.375,-48.78125 -0.78452,-3.23766 -0.26284,-3.83512 2.09375,-4.03125 l 4.90625,-0.46875 0,-2.84375 -24.65625,0 z m 104.40625,0 0,2.84375 c 8.63577,0.58839 8.8125,0.78356 8.8125,6.28125 l 0,49.65625 c 0,5.49468 -0.17673,5.68985 -8.8125,6.28125 l 0,2.84375 52,0 1.1875,-17 -2.96875,0 c -2.25701,11.97301 -6.66597,13.5625 -19.03125,13.5625 -4.6136,0 -8.12661,-0.21547 -10.1875,-1 -2.06088,-0.88409 -2.46875,-2.53402 -2.46875,-7.34375 l 0,-21.6875 13.75,0 c 8.34309,0 8.71266,2.34861 9.59375,8.53125 l 2.96875,0 0,-20.71875 -2.96875,0 c -0.88109,6.08609 -1.25066,8.46875 -9.59375,8.46875 l -13.75,0 0,-23.78125 c 0,-3.14111 0.4839,-3.53125 3.625,-3.53125 l 9.625,0 c 11.1885,0 13.43658,2.48268 14.8125,12.6875 l 2.9375,0 0,-16.09375 -49.53125,0 z m 126.28125,0 0,2.84375 c 8.63579,0.58839 8.84375,0.78356 8.84375,6.28125 l 0,49.65625 c 0,5.49468 -0.20796,5.68985 -8.84375,6.28125 l 0,2.84375 52.03125,0 1.1875,-17 -2.96875,0 c -2.257,11.97301 -6.66598,13.5625 -19.03125,13.5625 -4.61359,0 -8.15787,-0.21547 -10.21875,-1 -2.06089,-0.88409 -2.4375,-2.53402 -2.4375,-7.34375 l 0,-21.6875 13.75,0 c 8.3431,0 8.71267,2.34861 9.59375,8.53125 l 2.96875,0 0,-20.71875 -2.96875,0 c -0.88108,6.08609 -1.25065,8.46875 -9.59375,8.46875 l -13.75,0 0,-23.78125 c 0,-3.14111 0.48389,-3.53125 3.625,-3.53125 l 9.625,0 c 11.18849,0 13.43656,2.48268 14.8125,12.6875 l 2.9375,0 0,-16.09375 -49.5625,0 z m 67.34375,0 0,2.84375 c 8.63578,0.58839 8.8125,0.78356 8.8125,6.28125 l 0,49.65625 c 0,5.49468 -0.17672,5.68985 -8.8125,6.28125 l 0,2.84375 27.375,0 0,-2.84375 c -8.53923,-0.5914 -8.84375,-0.78657 -8.84375,-6.28125 l 0,-22.875 6.78125,0 c 5.88694,0 10.39387,1.85678 12.0625,8.53125 0.68494,2.74885 1.76353,10.5142 2.84375,15.03125 1.47249,6.27919 5.20963,8.4375 11,8.4375 l 7.96875,0 0,-2.84375 c -7.65512,-0.78754 -9.24091,-6.29427 -10.125,-12.96875 -1.17679,-8.73535 -2.9428,-15.29405 -13.34375,-17.84375 l 0,-0.21875 c 9.22418,-1.76517 16,-7.92625 16,-17.25 0,-9.42331 -5.8875,-16.78125 -23.0625,-16.78125 l -28.65625,0 z m 25.71875,3.40625 c 7.26286,0 15.5,2.66925 15.5,14.25 0,10.3044 -5.41761,14.8125 -14.9375,14.8125 l -7.75,0 0,-24.15625 c 0,-4.12175 0.70916,-4.90625 7.1875,-4.90625 z m -316.3125,88.875 0,2.84375 c 8.63578,0.58839 8.84375,0.78658 8.84375,6.28125 l 0,49.65625 c 0,5.49769 -0.20797,5.69286 -8.84375,6.28125 l 0,2.84375 27.375,0 0,-2.84375 c -8.5362,-0.58839 -8.84375,-0.78356 -8.84375,-6.28125 l 0,-25.90625 0.21875,0 0.0937,0.40625 c 5.59425,8.53922 12.37613,17.77046 20.03125,26.40625 5.69081,6.47834 10.88268,8.24136 16.96875,8.4375 l 6.1875,0.28125 0,-2.34375 c -4.0252,-0.88409 -7.18491,-3.64805 -11.40625,-8.0625 -8.73535,-9.32374 -16.95054,-19.23829 -23.625,-29.25 6.47834,-7.1633 14.01047,-14.61051 20,-19.8125 5.10241,-4.51403 7.06316,-5.60191 15.40625,-6.09375 l 0,-2.84375 -23.84375,0 0,2.84375 3.71875,0.3125 c 2.06088,0.19614 2.28239,1.35354 0.125,3.90625 -5.69383,6.37876 -16.80828,17.95589 -23.875,25.21875 l 0,-23.15625 c 0,-5.49468 0.30755,-5.69286 8.84375,-6.28125 l 0,-2.84375 -27.375,0 z m 70.21875,0 0,2.84375 c 8.63579,0.58839 8.8125,0.78658 8.8125,6.28125 l 0,33.96875 c 0.0996,5.79037 0.99065,10.97526 2.65625,14.3125 4.51704,9.61644 14.82106,11.96875 24.4375,11.96875 9.716,0 20.01724,-2.25274 24.53125,-11.96875 1.66862,-3.43681 2.65625,-8.61306 2.65625,-14.5 l 0,-33.78125 c 0,-5.49468 0.30754,-5.69286 8.84375,-6.28125 l 0,-2.84375 -27.375,0 0,2.84375 c 8.63577,0.58839 8.8125,0.78658 8.8125,6.28125 l 0,31.8125 c 0,9.32374 -1.46128,15.19936 -4.40625,19.125 -3.04153,3.92562 -7.36869,5.90625 -13.0625,5.90625 -5.59425,0 -9.89596,-1.98062 -12.9375,-5.90625 -2.94497,-3.92564 -4.4375,-9.80126 -4.4375,-19.125 l 0,-31.8125 c 0,-5.49468 0.30452,-5.69286 8.84375,-6.28125 l 0,-2.84375 -27.375,0 z m 83.9375,0 0,2.84375 c 8.63577,0.58839 8.84375,0.78658 8.84375,6.28125 l 0,49.65625 c 0,5.49769 -0.20797,5.69286 -8.84375,6.28125 l 0,2.84375 27.375,0 0,-2.84375 c -8.5362,-0.58839 -8.8125,-0.78356 -8.8125,-6.28125 l 0,-22.84375 6.75,0 c 5.88995,0 10.42512,1.85979 12.09375,8.53125 0.68796,2.74885 1.76654,10.48599 2.84375,15 1.47249,6.2792 5.20963,8.4375 11,8.4375 l 7.9375,0 0,-2.84375 c -7.65512,-0.78452 -9.21266,-6.26302 -10.09375,-12.9375 -1.1798,-8.73234 -2.97102,-15.3253 -13.375,-17.875 l 0,-0.1875 c 9.2272,-1.7682 16,-7.9575 16,-17.28125 0,-9.42331 -5.8875,-16.78125 -23.0625,-16.78125 l -28.65625,0 z m 70.90625,0 0,2.84375 c 8.63579,0.58839 8.84375,0.78658 8.84375,6.28125 l 0,49.65625 c 0,5.49769 -0.20796,5.69286 -8.84375,6.28125 l 0,2.84375 27.375,0 0,-2.84375 c -8.53923,-0.58839 -8.8125,-0.78356 -8.8125,-6.28125 l 0,-49.65625 c 0,-5.49468 0.27327,-5.69286 8.8125,-6.28125 l 0,-2.84375 -27.375,0 z m 43.40625,0 0,2.84375 c 8.63577,0.58839 8.84375,0.78658 8.84375,6.28125 l 0,49.65625 c 0,5.49769 -0.20797,5.69286 -8.84375,6.28125 l 0,2.84375 52.03125,0 1.1875,-16.96875 -2.96875,0 c -2.25701,11.97301 -6.66295,13.53125 -19.03125,13.53125 -4.61057,0 -8.12662,-0.18121 -10.1875,-0.96875 -2.06088,-0.88108 -2.46875,-2.53403 -2.46875,-7.34375 l 0,-21.71875 13.75,0 c 8.3431,0 8.7409,2.37986 9.625,8.5625 l 2.9375,0 0,-20.71875 -2.9375,0 c -0.8841,6.08609 -1.2819,8.4375 -9.625,8.4375 l -13.75,0 0,-23.75 c 0,-3.13809 0.48389,-3.53125 3.625,-3.53125 l 9.625,0 c 11.1885,0 13.43658,2.45143 14.8125,12.65625 l 2.9375,0 0,-16.09375 -49.5625,0 z m 67.1875,0 0,2.84375 c 8.63577,0.58839 8.84375,0.78658 8.84375,6.28125 l 0,49.65625 c 0,5.49769 -0.20798,5.69286 -8.84375,6.28125 l 0,2.84375 27.375,0 0,-2.84375 c -8.53922,-0.58839 -8.84375,-0.78356 -8.84375,-6.28125 l 0,-22.84375 6.78125,0 c 5.88694,0 10.39387,1.85979 12.0625,8.53125 0.68796,2.74885 1.79478,10.48599 2.875,15 1.46947,6.2792 5.17837,8.4375 10.96875,8.4375 l 7.96875,0 0,-2.84375 c -7.65512,-0.78452 -9.2409,-6.26302 -10.125,-12.9375 -1.17678,-8.73234 -2.93977,-15.3253 -13.34375,-17.875 l 0,-0.1875 c 9.2272,-1.7682 16,-7.9575 16,-17.28125 0,-9.42331 -5.8875,-16.78125 -23.0625,-16.78125 l -28.65625,0 z m -155.78125,3.4375 c 7.25985,0 15.5,2.638 15.5,14.21875 0,10.3044 -5.38638,14.84375 -14.90625,14.84375 l -7.75,0 0,-24.15625 c 0,-4.12175 0.6779,-4.90625 7.15625,-4.90625 z m 181.5,0 c 7.26286,0 15.5,2.638 15.5,14.21875 0,10.3044 -5.38637,14.84375 -14.90625,14.84375 l -7.78125,0 0,-24.15625 c 0,-4.12175 0.70915,-4.90625 7.1875,-4.90625 z"
       id="path446"
       style="fill:#ffffff;fill-opacity:1;fill-rule:nonzero;stroke:none" />
  </g>
</svg>
