<?xml version="1.0" encoding="UTF-8" standalone="no"?>
<!-- Created with Inkscape (http://www.inkscape.org/) -->
<svg
   xmlns:dc="http://purl.org/dc/elements/1.1/"
   xmlns:cc="http://web.resource.org/cc/"
   xmlns:rdf="http://www.w3.org/1999/02/22-rdf-syntax-ns#"
   xmlns:svg="http://www.w3.org/2000/svg"
   xmlns="http://www.w3.org/2000/svg"
   xmlns:sodipodi="http://sodipodi.sourceforge.net/DTD/sodipodi-0.dtd"
   xmlns:inkscape="http://www.inkscape.org/namespaces/inkscape"
   width="640.59448"
   height="279.9567"
   id="svg6381"
   sodipodi:version="0.32"
   inkscape:version="0.44.1"
   version="1.0"
   sodipodi:docbase="I:\Logos\Media\print"
   sodipodi:docname="Wirtschaftswoche.svg">
  <defs
     id="defs6383">
  <metadata
   id="CorelCorpID_0Corel-Layer" />

  
 
   
   
   
   
   
   
   
   
   
   
   
   
   
   
   
   
   
   
  </defs>
  <sodipodi:namedview
     id="base"
     pagecolor="#ffffff"
     bordercolor="#666666"
     borderopacity="1.0"
     inkscape:pageopacity="0.0"
     inkscape:pageshadow="2"
     inkscape:zoom="0.35"
     inkscape:cx="350"
     inkscape:cy="520"
     inkscape:document-units="px"
     inkscape:current-layer="layer1"
     width="180.79mm"
     height="79.01mm"
     units="mm"
     inkscape:window-width="925"
     inkscape:window-height="573"
     inkscape:window-x="22"
     inkscape:window-y="29" />
  <metadata
     id="metadata6386">
    <rdf:RDF>
      <cc:Work
         rdf:about="">
        <dc:format>image/svg+xml</dc:format>
        <dc:type
           rdf:resource="http://purl.org/dc/dcmitype/StillImage" />
      </cc:Work>
    </rdf:RDF>
  </metadata>
  <g
     inkscape:label="Ebene 1"
     inkscape:groupmode="layer"
     id="layer1"
     transform="translate(-150.5555,-398.0498)">
    <g
       id="g6448"
       transform="translate(7.082139,7.094533)">
      <polygon
         transform="matrix(2.655567,0,0,2.655567,145.1026,388.3714)"
         style="fill:red;fill-rule:nonzero"
         points="192.954,103.094 237.028,103.094 237.028,59.1469 192.954,59.1469 192.954,103.094 "
         id="_130734048" />
      <polygon
         transform="matrix(2.655567,0,0,2.655567,145.1026,388.3714)"
         style="fill:red;fill-rule:nonzero"
         points="2.05339,103.094 46.0005,103.094 46.0005,59.1469 2.05339,59.1469 2.05339,103.094 "
         id="_131059136" />
      <path
         style="fill:black;fill-rule:nonzero"
         d="M 755.15007,524.70609 C 748.79785,524.70609 743.11313,522.03028 739.76914,516.34591 L 738.09764,523.0339 L 728.39874,523.0339 L 728.39874,493.60677 L 744.1168,493.60677 C 744.1168,499.29281 743.44659,513.67045 752.47663,513.67045 C 756.8226,513.67045 758.82952,509.99337 758.82952,505.98049 C 758.82952,488.59061 727.73044,483.90988 727.73044,456.82302 C 727.73044,443.11225 736.08995,430.73954 750.46958,430.73954 C 756.82247,430.73954 761.8383,433.41534 765.51709,438.76628 L 767.18723,432.41169 L 774.54578,432.41169 L 774.54578,460.83556 L 760.16612,460.83556 C 760.16612,454.48267 761.50522,442.44339 752.4765,442.44339 C 748.46229,442.44339 746.45702,445.78773 746.45702,449.13173 C 746.45702,462.05725 771.85152,467.96299 776.98569,490.88654 L 776.98569,506.8726 C 774.46789,517.05186 766.77891,524.70593 755.14989,524.70593 L 755.15007,524.70609 z "
         id="_130367672" />
      <path
         style="fill:black;fill-rule:nonzero"
         d="M 706.66208,524.70609 C 693.28641,524.70609 689.60731,513.67045 689.60731,502.30139 L 689.60731,443.44712 L 682.91963,443.44712 L 682.91963,432.4118 L 689.60731,432.4118 L 689.60731,412.34812 L 713.6852,412.34812 L 713.6852,432.4118 L 724.05062,432.4118 L 724.05062,443.44712 L 713.6852,443.44712 L 713.6852,505.31041 C 713.6852,506.31405 714.01829,507.31768 714.35374,508.32097 L 715.69079,508.98984 C 717.69774,508.32097 718.70135,506.98257 720.37354,505.64584 L 725.05392,513.00171 C 720.37354,519.35662 714.68715,524.70623 706.66208,524.70623 L 706.66208,524.70609 z "
         id="_129819432" />
      <path
         style="fill:black;fill-rule:nonzero"
         d="M 675.56273,427.39575 C 675.56273,422.37957 676.56638,412.68269 669.20984,412.68269 C 664.19401,412.68269 661.85196,417.69887 661.85196,422.3796 C 661.85196,432.41162 670.54658,432.41162 678.23853,432.41162 L 678.23853,443.44693 L 667.2029,443.44693 L 667.2029,512.33313 L 675.89752,512.33313 L 675.89752,523.03366 L 638.11119,523.03366 L 638.11119,512.33313 L 643.12668,512.33313 L 643.12668,443.44693 L 637.10688,443.44693 L 637.10688,432.41162 L 643.12668,432.41162 L 643.12668,423.38325 C 643.12668,409.40344 654.59469,399.04909 667.78455,398.0498 L 672.96744,398.0498 C 677.03968,398.25542 681.19612,398.84077 684.92621,399.64079 L 684.92621,427.39572 L 675.56273,427.39572 L 675.56273,427.39575 z "
         id="_130358720" />
      <path
         style="fill:black;fill-rule:nonzero"
         d="M 537.78926,523.03387 L 537.78926,455.48634 C 537.78926,449.46654 537.4545,446.45595 533.44196,446.45595 C 529.76687,446.45595 527.08908,452.14235 527.08908,455.81943 L 527.08908,512.33335 L 533.44196,512.33335 L 533.44196,523.03387 L 497.99731,523.03387 L 497.99731,512.33335 L 503.01315,512.33335 L 503.01315,410.67585 L 497.99731,410.67585 L 497.99731,399.30543 L 527.08905,399.30543 L 527.08905,439.43477 C 531.10159,433.41529 536.45454,430.73948 543.47562,430.73948 C 560.86584,430.73948 561.86779,444.1155 561.86779,463.51051 L 561.86779,512.33311 L 567.21873,512.33311 L 567.21873,523.03364 L 537.78921,523.03364 L 537.78926,523.03387 z "
         id="_129768008" />
      <path
         style="fill:black;fill-rule:nonzero"
         d="M 471.24606,524.70609 C 444.49414,524.70609 440.81539,497.62063 440.81539,476.55322 C 440.81539,457.15842 445.16303,430.73938 469.90951,430.73938 C 474.925,430.73938 479.60642,433.07974 482.95007,437.09428 L 484.95702,432.41154 L 493.98539,432.41154 L 493.98539,464.17902 L 479.60642,464.17902 C 479.60642,447.12593 478.60278,442.44318 471.91444,442.44318 C 466.89826,442.44318 465.89698,448.46266 465.89698,452.14208 L 465.89698,496.95026 C 465.89698,502.96974 467.56914,510.66103 475.25844,510.66103 C 483.28484,510.66103 484.95702,496.95026 485.96066,491.26623 L 496.66087,492.93773 C 496.32577,508.32068 488.9699,524.70601 471.24625,524.70601 L 471.24606,524.70609 z "
         id="_130358232" />
      <path
         style="fill:black;fill-rule:nonzero"
         d="M 415.06754,524.70609 C 408.71532,524.70609 403.36371,522.03028 399.68493,516.34591 L 398.01276,523.0339 L 388.65165,523.0339 L 388.65165,493.60677 L 404.03259,493.60677 C 404.03259,499.29281 403.69916,513.67045 412.39243,513.67045 C 416.73973,513.67045 419.0801,509.99337 419.0801,505.98049 C 419.0801,488.59061 387.64747,483.90988 387.64747,456.82302 C 387.64747,443.11225 396.00765,430.73954 410.38696,430.73954 C 417.07329,430.73954 422.0908,433.41534 425.43482,438.76628 L 427.44007,432.41169 L 434.46351,432.41169 L 434.46351,460.83556 L 420.08218,460.83556 C 420.08218,454.48267 421.42261,442.44339 412.39256,442.44339 C 408.38003,442.44339 406.37444,445.78773 406.37444,449.13173 C 406.37444,463.17593 437.8052,469.19541 437.8052,499.29273 C 437.8052,513.00149 429.78281,524.70601 415.06605,524.70601 L 415.06773,524.70601 L 415.06754,524.70609 z "
         id="_129874072" />
      <path
         style="fill:black;fill-rule:nonzero"
         d="M 367.24768,524.70609 C 353.53691,524.70609 350.19292,513.67045 350.19292,502.30139 L 350.19292,443.44712 L 343.50458,443.44712 L 343.50458,432.4118 L 350.19292,432.4118 L 350.19292,412.34812 L 374.27081,412.34812 L 374.27081,432.4118 L 384.63557,432.4118 L 384.63557,443.44712 L 374.27081,443.44712 L 374.27081,505.31041 C 374.27081,506.31405 374.60424,507.31768 374.93901,508.32097 L 376.27573,508.98984 C 378.28334,508.32097 379.28699,506.98257 380.62372,505.64584 L 385.3058,513.00171 C 380.95851,519.35662 375.27211,524.70623 367.24773,524.70623 L 367.24768,524.70609 z "
         id="_129881688" />
      <path
         style="fill:black;fill-rule:nonzero"
         d="M 329.46082,461.17032 C 329.46082,456.15483 330.79755,445.45462 323.10794,445.45462 C 317.757,445.45462 315.74973,450.47011 315.74973,455.15118 L 315.74973,512.33324 L 323.10794,512.33324 L 323.10794,523.03377 L 286.65736,523.03377 L 286.65736,512.33324 L 291.67354,512.33324 L 291.67354,443.44704 L 286.65736,443.44704 L 286.65736,432.41172 L 312.74084,432.41172 L 314.41301,438.76631 C 317.42158,433.75082 324.10992,430.73956 330.12937,430.73956 C 332.80451,430.73956 337.48524,431.075 339.82761,432.07629 L 339.82761,461.17042 L 329.46084,461.17042 L 329.46082,461.17032 z "
         id="_130412376" />
      <path
         style="fill:black;fill-rule:nonzero"
         d="M 250.54083,399.30541 L 276.28886,399.30541 L 276.28886,423.38163 L 250.54083,423.38163 L 250.54083,399.30541 L 250.54083,399.30541 z M 246.86172,523.03385 L 246.86172,512.33332 L 252.21266,512.33332 L 252.21266,443.44712 L 246.86172,443.44712 L 246.86172,432.4118 L 276.29045,432.4118 L 276.29045,512.33348 L 282.64334,512.33348 L 282.64334,523.03401 L 246.8617,523.03401 L 246.86172,523.03385 z "
         id="_129767728" />
      <polygon
         transform="matrix(2.655567,0,0,2.655567,145.1026,388.3714)"
         style="fill:black;fill-rule:nonzero"
         points="36.1786,8.65086 30.7638,50.7095 22.8306,50.7095 20.1873,26.5324 16.7862,50.7095 9.35697,50.7095 4.19444,8.65086 2.05339,8.65086 2.05339,4.11739 14.8979,4.11739 14.8979,8.65086 12.6306,8.65086 15.5269,31.0652 18.9273,4.11739 26.6089,4.11739 29.5052,30.8136 32.2748,8.65086 30.261,8.65086 30.261,4.11739 38.1942,4.11739 38.1942,8.65086 36.1786,8.65086 "
         id="_129767808" />
      <path
         style="fill:black;fill-rule:nonzero"
         d="M 620.05341,526.04449 C 613.36574,526.04449 608.3499,524.37266 605.00591,518.68629 C 601.66191,524.03723 596.31063,525.70939 590.29316,525.70939 C 573.90659,525.70939 568.55767,512.66848 568.55767,498.28959 C 568.55767,477.89048 583.27007,468.86219 601.66197,468.86219 L 601.66197,451.13889 C 601.66197,446.84861 601.60426,442.4436 595.97727,442.4436 C 592.13916,442.4436 587.95119,444.23083 587.95119,464.17945 L 572.90302,464.17945 L 572.90302,432.41196 L 583.27015,432.41196 L 585.27709,438.43176 C 589.28963,434.08412 594.63889,431.74342 600.65869,431.74342 C 623.0644,431.74342 625.40443,444.11579 625.40443,463.51091 L 625.40443,507.31767 C 625.40443,508.32097 625.73787,509.99347 627.07694,510.66135 C 628.74909,510.32658 630.75235,507.65312 631.75732,506.31405 L 635.77153,516.01295 C 631.75732,522.03042 627.74545,526.04462 620.05347,526.04462 L 620.05341,526.04449 z M 599.65497,479.22711 C 592.63354,479.22711 591.29514,490.26274 591.29514,495.27892 C 591.29514,499.29279 591.29514,511.33007 597.31427,511.33007 C 600.65625,511.33007 601.66191,508.98971 601.66191,503.97354 L 601.66191,479.22714 L 599.65497,479.22714 L 599.65497,479.22711 z "
         id="_130809840" />
      <path
         style="fill:black;fill-rule:nonzero"
         d="M 544.47863,662.14442 L 544.47863,594.5953 C 544.47863,588.24273 543.81009,585.56727 540.13134,585.56727 C 536.12016,585.56727 533.443,590.91821 533.443,594.93075 L 533.443,651.4444 L 539.79958,651.4444 L 539.79958,662.14461 L 504.35121,662.14461 L 504.35121,651.4444 L 509.36872,651.4444 L 509.36872,549.78531 L 504.35121,549.78531 L 504.35121,538.41691 L 533.44295,538.41691 L 533.44295,578.54439 C 537.45715,572.52491 542.80844,569.85112 549.83154,569.85112 C 567.21974,569.85112 568.22304,582.89203 568.22304,602.62215 L 568.22304,651.44448 L 573.57398,651.44448 L 573.57398,662.14469 L 544.47853,662.14469 L 544.47863,662.14442 z "
         id="_130358344" />
      <path
         style="fill:black;fill-rule:nonzero"
         d="M 477.59818,663.81743 C 450.84653,663.81743 447.5029,636.73065 447.5029,615.66324 C 447.5029,596.26844 451.8502,569.85152 476.2611,569.85152 C 481.27728,569.85152 485.96,572.19189 489.30402,576.20441 L 491.30929,571.18857 L 500.33968,571.18857 L 500.33968,603.29093 L 485.96003,603.29093 C 485.96003,585.90137 484.95638,581.22032 478.26873,581.22032 C 473.58599,581.22032 472.24925,587.57289 472.24925,590.9189 L 472.24925,636.06248 C 472.24925,642.08162 474.25617,649.77123 481.61273,649.77123 C 489.63714,649.77123 491.6444,636.06248 492.31294,630.37776 L 503.01315,632.04993 C 502.68003,647.43087 495.32353,663.8174 477.5982,663.8174 L 477.59818,663.81743 z "
         id="_130495440" />
      <polygon
         transform="matrix(2.655567,0,0,2.655567,145.1026,388.3714)"
         style="fill:black;fill-rule:nonzero"
         points="88.0599,61.0355 82.645,103.094 74.8381,103.094 72.068,78.9164 68.6674,103.094 61.3637,103.094 56.2014,61.0355 54.0601,61.0355 54.0601,56.5022 66.9048,56.5022 66.9048,61.0355 64.6381,61.0355 67.4083,83.3237 70.9343,56.5022 78.4896,56.5022 81.5121,83.1981 84.2823,61.0355 82.2672,61.0355 82.2672,56.5022 90.2003,56.5022 90.2003,61.0355 88.0599,61.0355 "
         id="_129946616" />
      <path
         style="fill:black;fill-rule:nonzero"
         d="M 605.67352,663.81743 C 579.5907,663.81743 574.90931,638.40281 574.90931,617.33545 C 574.90931,598.9436 581.26219,569.85152 604.67184,569.85152 C 625.73715,569.85152 633.42871,589.91552 633.42871,607.97192 C 633.42669,613.65629 633.09562,615.99866 632.76017,620.01085 L 599.32074,620.01085 L 599.32074,637.06597 C 599.32074,644.4225 601.9962,650.10653 610.02127,650.10653 C 618.04766,650.10653 622.05988,638.4027 623.39661,631.71468 L 634.09916,633.38685 C 632.0919,650.4413 624.73568,663.81725 605.67317,663.81725 L 605.67352,663.81743 z M 610.0215,590.24867 C 610.0215,586.90499 610.0215,580.21665 605.00532,580.21665 C 599.98914,580.21665 599.32095,587.90829 599.32095,591.58707 L 599.32095,609.97924 L 610.35627,609.97924 L 610.0215,590.24867 L 610.0215,590.24867 z "
         id="_129791232" />
      <path
         style="fill:black;fill-rule:nonzero"
         d="M 410.38578,663.81743 C 385.30594,663.81743 378.95156,637.39951 378.95156,617.00032 C 378.95156,596.93631 385.30581,569.85152 410.38578,569.85152 C 435.46562,569.85152 441.8184,596.93618 441.8184,617.00032 C 441.8184,637.39943 435.46551,663.81743 410.38578,663.81743 L 410.38578,663.81743 z M 416.07015,590.24867 C 416.07015,586.57158 415.40196,580.21665 410.38578,580.21665 C 405.36994,580.21665 404.69973,586.57156 404.69973,590.24867 L 404.69973,643.08356 C 404.69973,646.76301 405.36994,653.45068 410.38578,653.45068 C 415.40196,653.45068 416.07015,646.76301 416.07015,643.08356 L 416.07015,590.24867 z "
         id="_129871768" />
    </g>
  </g>
</svg>
